<?xml version="1.0" encoding="UTF-8"?>
<svg version="1.1" xmlns="http://www.w3.org/2000/svg" width="539" height="610">
<path d="M0 0 C0 0.66 0 1.32 0 2 C1.093125 2.28875 2.18625 2.5775 3.3125 2.875 C7 4 7 4 10 6 C10 6.66 10 7.32 10 8 C10.7425 8.28875 11.485 8.5775 12.25 8.875 C13.1575 9.24625 14.065 9.6175 15 10 C15.66 10.268125 16.32 10.53625 17 10.8125 C21.59948058 13.54344159 24.70630632 17.8828829 28 22 C30.58350893 24.70953375 32.88143016 26.92095344 36 29 C40 34.6722408 40 34.6722408 40 38 C40.99 38.33 41.98 38.66 43 39 C44.03432904 40.98246398 45.03238392 42.98413316 46 45 C46.495 45.495 46.99 45.99 47.5 46.5 C49.68760515 48.68760515 50.74766959 51.19716528 52 54 C52 54.66 52 55.32 52 56 C52.66 56 53.32 56 54 56 C55.2104252 58.42085041 56.42005382 60.84204008 57.625 63.265625 C58.46220173 64.93051479 59.31293211 66.58880648 60.1875 68.234375 C62.26352284 72.17271245 63.54948186 75.49481858 64 80 C64.66 80 65.32 80 66 80 C66 80.99 66 81.98 66 83 C64.54293274 83.50367757 63.08429904 84.00282556 61.625 84.5 C60.81289063 84.7784375 60.00078125 85.056875 59.1640625 85.34375 C57 86 57 86 55 86 C54.67 86.99 54.34 87.98 54 89 C52.34928604 90.02611949 50.68029994 91.02308143 49 92 C48.29875 92.721875 47.5975 93.44375 46.875 94.1875 C45 96 45 96 42 96 C41.731875 94.865625 41.46375 93.73125 41.1875 92.5625 C40.795625 91.386875 40.40375 90.21125 40 89 C39.01 88.67 38.02 88.34 37 88 C34 82.77777778 34 82.77777778 34 80 C33.01 79.67 32.02 79.34 31 79 C29.97388051 77.34928604 28.97691857 75.68029994 28 74 C26.71034824 72.62437146 25.37310707 71.29233607 24 70 C19.2764977 65.39170507 19.2764977 65.39170507 17.5 62.875 C15.64909973 60.56137466 13.54575672 59.47385915 11 58 C10.67 57.34 10.34 56.68 10 56 C7.88984046 54.87293294 7.88984046 54.87293294 5.4375 53.875 C4.19806641 53.34519531 4.19806641 53.34519531 2.93359375 52.8046875 C2.29550781 52.53914063 1.65742188 52.27359375 1 52 C1 51.34 1 50.68 1 50 C-0.29093133 49.56033498 -1.58280836 49.12344701 -2.875 48.6875 C-3.59429687 48.44386719 -4.31359375 48.20023438 -5.0546875 47.94921875 C-6.02664063 47.63597656 -6.99859375 47.32273438 -8 47 C-8.70721191 46.74645752 -9.41442383 46.49291504 -10.14306641 46.23168945 C-16.75879107 44.00338052 -22.68040171 43.63169938 -29.625 43.8125 C-31.13126953 43.83280273 -31.13126953 43.83280273 -32.66796875 43.85351562 C-35.11256864 43.88843848 -37.55597734 43.93747252 -40 44 C-40 44.66 -40 45.32 -40 46 C-41.9570868 46.67031719 -43.91571113 47.33614683 -45.875 48 C-46.96554688 48.37125 -48.05609375 48.7425 -49.1796875 49.125 C-52 50 -52 50 -54 50 C-54 50.66 -54 51.32 -54 52 C-54.61488281 52.24234375 -55.22976562 52.4846875 -55.86328125 52.734375 C-61.8397244 55.19580076 -61.8397244 55.19580076 -66 60 C-67.33333333 60.66666667 -68.66666667 61.33333333 -70 62 C-72.60567934 64.35146672 -74.69127244 66.48545407 -76.5 69.5 C-78.29255562 72.48759269 -80.51074378 74.57145734 -83 77 C-85.30565427 79.64472107 -86.98980102 81.97960205 -88.5625 85.125 C-89.88851188 87.77702376 -90.96584869 88.96584869 -93 91 C-94.04622875 92.97620986 -95.05439935 94.9737129 -96 97 C-96.66 97 -97.32 97 -98 97 C-98.1546875 98.051875 -98.1546875 98.051875 -98.3125 99.125 C-99.09359003 102.39137647 -100.42058743 105.0471852 -102 108 C-102.66 108 -103.32 108 -104 108 C-104.99 111.63 -105.98 115.26 -107 119 C-106.01 119.33 -105.02 119.66 -104 120 C-104 120.66 -104 121.32 -104 122 C-102.741875 122.103125 -101.48375 122.20625 -100.1875 122.3125 C-94.6148782 122.91590491 -89.36039942 124.40690933 -84 126 C-84 126.66 -84 127.32 -84 128 C-82.329375 128.1546875 -82.329375 128.1546875 -80.625 128.3125 C-75.56445698 128.929197 -70.83377357 130.42506148 -66 132 C-66 132.66 -66 133.32 -66 134 C-65.43152344 134.12117187 -64.86304688 134.24234375 -64.27734375 134.3671875 C-59.45754536 135.41322054 -54.7267066 136.59204484 -50 138 C-50 138.66 -50 139.32 -50 140 C-49.41992188 140.12117187 -48.83984375 140.24234375 -48.2421875 140.3671875 C-43.71971558 141.33735474 -39.36249034 142.43397783 -35 144 C-35 144.66 -35 145.32 -35 146 C-28.58604177 147.93012632 -24.38700473 148.09029246 -18 146 C-18 145.34 -18 144.68 -18 144 C-16.0429132 143.32968281 -14.08428887 142.66385317 -12.125 142 C-11.03445313 141.62875 -9.94390625 141.2575 -8.8203125 140.875 C-6 140 -6 140 -4 140 C-4 139.34 -4 138.68 -4 138 C-1.73050898 137.32844651 0.5403961 136.6626037 2.8125 136 C4.07707031 135.62875 5.34164063 135.2575 6.64453125 134.875 C10 134 10 134 13 134 C13 133.34 13 132.68 13 132 C15.4363189 131.32873871 17.87388883 130.66283646 20.3125 130 C21.00279297 129.80921875 21.69308594 129.6184375 22.40429688 129.421875 C25.35787949 128.62283816 27.92559219 128 31 128 C31 127.34 31 126.68 31 126 C32.65 126 34.3 126 36 126 C36.26554687 127.07121094 36.53109375 128.14242187 36.8046875 129.24609375 C37.16103168 130.64333805 37.51782582 132.04046764 37.875 133.4375 C38.04902344 134.14455078 38.22304688 134.85160156 38.40234375 135.58007812 C38.87351608 137.40368957 39.43123057 139.20443229 40 141 C40.66 141.33 41.32 141.66 42 142 C42 142.99 42 143.98 42 145 C39.36 145.33 36.72 145.66 34 146 C34 146.66 34 147.32 34 148 C31.41806023 148.67250524 28.83467929 149.33817901 26.25 150 C25.52039063 150.19078125 24.79078125 150.3815625 24.0390625 150.578125 C20.55428354 151.46515964 17.61876278 152 14 152 C14 152.66 14 153.32 14 154 C11.91891315 154.67364661 9.8350329 155.33866798 7.75 156 C6.58984375 156.37125 5.4296875 156.7425 4.234375 157.125 C1 158 1 158 -3 158 C-1.60804085 160.7839183 0.15575779 160.97898997 3 162 C3 162.66 3 163.32 3 164 C3.86625 164.103125 4.7325 164.20625 5.625 164.3125 C9.16683123 165.03398414 11.84312042 166.27123261 15 168 C15 168.66 15 169.32 15 170 C16.0209375 170.1546875 16.0209375 170.1546875 17.0625 170.3125 C20.67054778 171.15693671 23.65617122 172.39239001 27 174 C27.33 174.66 27.66 175.32 28 176 C30.11015954 177.12706706 30.11015954 177.12706706 32.5625 178.125 C33.38878906 178.47820312 34.21507812 178.83140625 35.06640625 179.1953125 C35.70449219 179.46085938 36.34257812 179.72640625 37 180 C37 180.66 37 181.32 37 182 C38.0725 182.28875 39.145 182.5775 40.25 182.875 C43.09400364 183.72820109 45.43508983 184.5636503 48 186 C48 186.66 48 187.32 48 188 C48.928125 188.28875 49.85625 188.5775 50.8125 188.875 C54 190 54 190 57 192 C57 192.66 57 193.32 57 194 C57.804375 194.1546875 57.804375 194.1546875 58.625 194.3125 C61.62502044 195.18092697 64.2379535 196.55620296 67 198 C67 198.66 67 199.32 67 200 C67.928125 200.28875 68.85625 200.5775 69.8125 200.875 C73 202 73 202 76 204 C76 204.66 76 205.32 76 206 C77.32 206.33 78.64 206.66 80 207 C79.87882812 206.39526855 79.75765625 205.79053711 79.6328125 205.16748047 C79.08264139 202.40445768 78.54125378 199.63978285 78 196.875 C77.71382813 195.44800781 77.71382813 195.44800781 77.421875 193.9921875 C76.50243109 189.26361884 75.7390237 184.84437265 76 180 C75.34 180 74.68 180 74 180 C73.49356447 177.77228658 72.9951038 175.54275924 72.5 173.3125 C72.08234375 171.45044922 72.08234375 171.45044922 71.65625 169.55078125 C71.10645874 166.57601782 70.86204295 164.00631398 71 161 C73.39531756 160.66254646 75.79114268 160.3299171 78.1875 160 C79.19780273 159.85691406 79.19780273 159.85691406 80.22851562 159.7109375 C83.84664577 159.21675387 87.34796401 158.88653869 91 159 C93.04538889 165.95432222 93.58169634 172.77875787 94 180 C94.66 180 95.32 180 96 180 C96.21934204 181.78615723 96.21934204 181.78615723 96.44311523 183.60839844 C96.98667074 188.02928268 97.53349271 192.44975781 98.08129883 196.87011719 C98.3178669 198.78276761 98.55355083 200.69552761 98.78833008 202.60839844 C99.12608783 205.3590176 99.46703065 208.10922611 99.80859375 210.859375 C99.91280136 211.71368103 100.01700897 212.56798706 100.12437439 213.44818115 C100.27441673 214.64897308 100.27441673 214.64897308 100.42749023 215.87402344 C100.51409409 216.57573669 100.60069794 217.27744995 100.68992615 218.00042725 C101.00963638 220.0621421 101.36610038 222.0105531 102 224 C103.81601365 225.20003343 103.81601365 225.20003343 106 226 C109.88888889 227.77777778 109.88888889 227.77777778 111 230 C111.825 230.474375 112.65 230.94875 113.5 231.4375 C116 233 116 233 117 236 C118.32148827 236.37756808 119.65835921 236.7018576 121 237 C124.67922125 238.88447918 126.57103624 240.72617929 129 244 C129.928125 244.4640625 129.928125 244.4640625 130.875 244.9375 C133.84448429 246.42224215 135.67875701 248.62600149 138 251 C140.05932184 252.80537849 142.13877712 254.58382311 144.23046875 256.3515625 C146 258 146 258 148 261 C149.1446875 261.680625 149.1446875 261.680625 150.3125 262.375 C153.39125239 264.23657121 155.52201526 266.39811603 158 269 C158.825 269.825 159.65 270.65 160.5 271.5 C163 274 165.5 276.5 168 279 C168.103125 278.360625 168.20625 277.72125 168.3125 277.0625 C168.539375 276.381875 168.76625 275.70125 169 275 C169.99 274.67 170.98 274.34 172 274 C173.11680706 271.15020361 173.11680706 271.15020361 174 268 C174.63815344 266.65278717 175.29325371 265.31252882 176 264 C176.66 264 177.32 264 178 264 C178.28875 263.071875 178.5775 262.14375 178.875 261.1875 C180 258 180 258 182 255 C182.66 255 183.32 255 184 255 C184.103125 254.319375 184.20625 253.63875 184.3125 252.9375 C185.14725019 249.37084011 186.49472754 246.33777806 188 243 C188.66 243 189.32 243 190 243 C190.12117188 242.43152344 190.24234375 241.86304688 190.3671875 241.27734375 C191.41322054 236.45754536 192.59204484 231.7267066 194 227 C194.66 227 195.32 227 196 227 C196.51224726 223.39746678 197.00746375 219.79277663 197.5 216.1875 C197.64308594 215.18267578 197.78617187 214.17785156 197.93359375 213.14257812 C199.1290157 204.29076319 199.75198172 195.5797001 198.0625 186.75 C197.88074219 185.76 197.69898438 184.77 197.51171875 183.75 C197.34285156 182.8425 197.17398437 181.935 197 181 C196.64172185 178.66922347 196.31862472 176.33658127 196 174 C195.34 174 194.68 174 194 174 C193.32845067 172.71086513 192.66291141 171.41859796 192 170.125 C191.62875 169.40570313 191.2575 168.68640625 190.875 167.9453125 C190 166 190 166 190 164 C189.01 163.67 188.02 163.34 187 163 C186.566875 162.236875 186.13375 161.47375 185.6875 160.6875 C183.63365084 157.41655504 181.21151153 156.06964076 178 154 C178 153.34 178 152.68 178 152 C177.278125 151.71125 176.55625 151.4225 175.8125 151.125 C171.90625 149.5625 171.90625 149.5625 168 148 C168 147.34 168 146.68 168 146 C160.08 144.02 160.08 144.02 152 142 C152 141.34 152 140.68 152 140 C139.02855343 138.23031063 126.04644882 137.08720407 113 136 C113 126.76 113 117.52 113 108 C127.65056972 106.8730331 127.65056972 106.8730331 133.8828125 106.8671875 C134.54860321 106.86623077 135.21439392 106.86527405 135.90036011 106.86428833 C137.283021 106.86361892 138.6656853 106.86538463 140.04833984 106.86962891 C142.12995621 106.87501282 144.21135864 106.86963209 146.29296875 106.86328125 C153.91259622 106.85989565 161.42710012 107.12166366 169 108 C169 108.66 169 109.32 169 110 C169.78761719 110.03738281 170.57523437 110.07476562 171.38671875 110.11328125 C179.52009192 110.60417123 187.11953526 111.9492735 195 114 C195 114.66 195 115.32 195 116 C195.60328125 116.12117188 196.2065625 116.24234375 196.828125 116.3671875 C197.62734375 116.53476563 198.4265625 116.70234375 199.25 116.875 C200.03890625 117.03742188 200.8278125 117.19984375 201.640625 117.3671875 C203.96831144 117.99150075 205.89031952 118.84838542 208 120 C208 120.66 208 121.32 208 122 C208.53625 122.103125 209.0725 122.20625 209.625 122.3125 C214.75198509 123.79662726 218.42797793 126.07077572 222 130 C222.7425 130.70125 223.485 131.4025 224.25 132.125 C226 134 226 134 226 136 C226.928125 136.37125 226.928125 136.37125 227.875 136.75 C230.37818306 138.22246063 230.83045281 139.41028837 232 142 C232.66 142.33 233.32 142.66 234 143 C235.0703125 145.21484375 235.0703125 145.21484375 236.125 147.9375 C236.47820313 148.83339844 236.83140625 149.72929687 237.1953125 150.65234375 C238 153 238 153 238 155 C238.66 155 239.32 155 240 155 C242.02331524 163.01145265 242.30299207 170.70164836 242.25 178.9375 C242.25773438 180.13568359 242.26546875 181.33386719 242.2734375 182.56835938 C242.25739756 189.92668258 241.61061848 196.81733864 240 204 C239.34 204 238.68 204 238 204 C237.896875 205.11375 237.79375 206.2275 237.6875 207.375 C237.070803 212.43554302 235.57493852 217.16622643 234 222 C233.34 222 232.68 222 232 222 C231.69255859 223.04800781 231.69255859 223.04800781 231.37890625 224.1171875 C230.97478516 225.48230469 230.97478516 225.48230469 230.5625 226.875 C230.29566406 227.77992188 230.02882813 228.68484375 229.75390625 229.6171875 C229 232 229 232 228 234 C227.34 234 226.68 234 226 234 C225.81824219 234.68707031 225.63648438 235.37414062 225.44921875 236.08203125 C225.07216797 237.43361328 225.07216797 237.43361328 224.6875 238.8125 C224.44386719 239.70582031 224.20023438 240.59914062 223.94921875 241.51953125 C222.95282941 244.12326471 221.97217971 245.10914729 220 247 C218.93548878 249.1288195 218.93548878 249.1288195 218.0625 251.4375 C216.52414115 255.08005085 214.96484335 257.33164098 212 260 C210.76487921 262.13309192 210.76487921 262.13309192 210 264 C209.34 264 208.68 264 208 264 C207.71125 264.763125 207.4225 265.52625 207.125 266.3125 C206 269 206 269 204 272 C203.34 272 202.68 272 202 272 C201.71125 272.763125 201.4225 273.52625 201.125 274.3125 C200 277 200 277 198 280 C197.34 280 196.68 280 196 280 C195.71125 280.5775 195.4225 281.155 195.125 281.75 C194.75375 282.4925 194.3825 283.235 194 284 C193.731875 284.639375 193.46375 285.27875 193.1875 285.9375 C190.93720787 289.84590212 187.71343232 292.52437846 184 295 C184 295.66 184 296.32 184 297 C184.804375 297.804375 185.60875 298.60875 186.4375 299.4375 C189 302 189 302 190 305 C190.99 305.33 191.98 305.66 193 306 C196 309.44444444 196 309.44444444 196 312 C196.66 312 197.32 312 198 312 C202 317.41176471 202 317.41176471 202 320 C202.66 320 203.32 320 204 320 C204.94401042 321.7578125 205.88802083 323.515625 206.83203125 325.2734375 C208.04763493 327.30502365 208.04763493 327.30502365 211 329 C212.24609375 330.91796875 212.24609375 330.91796875 213.4375 333.1875 C215.00972527 336.14137779 216.60689174 339.05853003 218.3125 341.9375 C220 345 220 345 220 347 C220.99 347.33 221.98 347.66 223 348 C223.94921875 350.28515625 223.94921875 350.28515625 224.6875 353.0625 C224.93886719 353.98160156 225.19023438 354.90070313 225.44921875 355.84765625 C225.72185547 356.91306641 225.72185547 356.91306641 226 358 C226.66 358 227.32 358 228 358 C228.32613281 358.78503906 228.65226563 359.57007813 228.98828125 360.37890625 C229.64376953 361.95478516 229.64376953 361.95478516 230.3125 363.5625 C230.76882813 364.66078125 231.22515625 365.7590625 231.6953125 366.890625 C232.66879403 369.21065883 233.66485306 371.51418008 234.6875 373.8125 C236.66537583 378.61591273 238 382.78650326 238 388 C238.66 388 239.32 388 240 388 C241.94521359 396.58508278 242.30432075 404.84314544 242.25 413.625 C242.25773438 414.883125 242.26546875 416.14125 242.2734375 417.4375 C242.25909302 424.27981546 241.80554758 430.39398861 240 437 C239.34 437 238.68 437 238 437 C237.8453125 438.299375 237.8453125 438.299375 237.6875 439.625 C236.96601586 443.16683123 235.72876739 445.84312042 234 449 C233.34 449 232.68 449 232 449 C231.814375 449.66 231.62875 450.32 231.4375 451 C228.67315666 456.76906436 224.69220913 461.15389544 219 464 C218.34 464.99 217.68 465.98 217 467 C213.76650772 468.85753812 211.75586417 470 208 470 C208 470.66 208 471.32 208 472 C206.58774074 472.67595315 205.16997095 473.34040059 203.75 474 C202.96109375 474.37125 202.1721875 474.7425 201.359375 475.125 C199 476 199 476 195 476 C195 476.66 195 477.32 195 478 C193.78183594 478.26554687 192.56367188 478.53109375 191.30859375 478.8046875 C189.6848706 479.16134345 188.06117409 479.51812074 186.4375 479.875 C185.63763672 480.04902344 184.83777344 480.22304688 184.01367188 480.40234375 C180.46789935 481.18386096 177.00734797 481.99773016 173.53515625 483.0703125 C163.77223587 485.63779874 153.58117412 485.15539623 143.55957031 485.13037109 C141.00579899 485.12501217 138.45220349 485.13034169 135.8984375 485.13671875 C134.24479129 485.13605784 132.59114518 485.1347764 130.9375 485.1328125 C130.18927979 485.13483673 129.44105957 485.13686096 128.67016602 485.13894653 C123.00049198 485.11438924 117.71113966 484.57111397 112 484 C112 474.76 112 465.52 112 456 C124.3125 455.125 124.3125 455.125 128.12231445 454.86376953 C134.37851107 454.40005708 140.44348138 453.68212857 146.58666992 452.39794922 C149.09975486 451.98355079 151.45766846 451.93255212 154 452 C154 451.34 154 450.68 154 450 C155.9570868 449.32968281 157.91571113 448.66385317 159.875 448 C160.96554687 447.62875 162.05609375 447.2575 163.1796875 446.875 C166 446 166 446 168 446 C168 445.34 168 444.68 168 444 C169.28913487 443.32845067 170.58140204 442.66291141 171.875 442 C172.59429687 441.62875 173.31359375 441.2575 174.0546875 440.875 C176 440 176 440 178 440 C178 439.34 178 438.68 178 438 C178.9075 437.4225 179.815 436.845 180.75 436.25 C184.22470689 433.84443369 185.758576 431.52223771 188 428 C188.66 428 189.32 428 190 428 C190.28875 427.278125 190.5775 426.55625 190.875 425.8125 C191.91666667 423.20833333 192.95833333 420.60416667 194 418 C194.66 418 195.32 418 196 418 C196.51112645 415.06406535 197.00900839 412.12681465 197.5 409.1875 C197.64308594 408.37345703 197.78617187 407.55941406 197.93359375 406.72070312 C199.66517433 396.20753531 198.99586422 386.31724018 197.5 375.8125 C197.35691406 374.76513672 197.21382813 373.71777344 197.06640625 372.63867188 C196.71747416 370.09146764 196.36193031 367.54538398 196 365 C195.34 365 194.68 365 194 365 C193.32779649 363.06441401 192.66241923 361.12645628 192 359.1875 C191.62875 358.10855469 191.2575 357.02960938 190.875 355.91796875 C190 353 190 353 190 350 C189.34 350 188.68 350 188 350 C187.3291288 348.3767313 186.66342971 346.75132422 186 345.125 C185.62875 344.22007812 185.2575 343.31515625 184.875 342.3828125 C184 340 184 340 184 338 C183.34 338 182.68 338 182 338 C181.32845067 336.71086513 180.66291141 335.41859796 180 334.125 C179.62875 333.40570313 179.2575 332.68640625 178.875 331.9453125 C178 330 178 330 178 328 C177.34 328 176.68 328 176 328 C175.75765625 327.46890625 175.5153125 326.9378125 175.265625 326.390625 C173.27084308 322.18623849 171.37620747 319.25562863 168 316 C168 315.01 168 314.02 168 313 C167.278125 313.721875 166.55625 314.44375 165.8125 315.1875 C163.20833333 317.79166667 160.60416667 320.39583333 158 323 C157.175 323.845625 156.35 324.69125 155.5 325.5625 C148.8974359 332 148.8974359 332 146 332 C145.6596875 332.8353125 145.6596875 332.8353125 145.3125 333.6875 C142.5740973 338.51230476 138.67703067 341.24175114 134 344 C132.64499081 345.31129922 131.31328657 346.64691687 130 348 C120.63414634 356 120.63414634 356 118 356 C118 356.66 118 357.32 118 358 C112.58823529 362 112.58823529 362 110 362 C109.79375 362.61875 109.5875 363.2375 109.375 363.875 C107.45224112 366.84653645 105.33405473 367.13024659 102 368 C102 369.32 102 370.64 102 372 C101.34 372 100.68 372 100 372 C100.02320313 372.54060059 100.04640625 373.08120117 100.0703125 373.63818359 C100.25607561 381.74044081 99.13372679 389.62613898 98 397.625 C97.80667574 399.02465465 97.61396298 400.4243939 97.421875 401.82421875 C96.95495283 405.21714894 96.4797995 408.6088639 96 412 C95.34 412 94.68 412 94 412 C93.95101563 412.845625 93.90203125 413.69125 93.8515625 414.5625 C93.43075986 420.94709185 92.80649237 426.85792595 91 433 C89.741875 432.855625 88.48375 432.71125 87.1875 432.5625 C81.79870505 431.96183814 76.40116209 431.47449461 71 431 C71.62320121 424.56025419 72.64008262 418.32427599 74 412 C74.66 412 75.32 412 76 412 C76.04898437 411.37996094 76.09796875 410.75992187 76.1484375 410.12109375 C76.83079578 402.0386776 77.88353762 394.03202546 79 386 C78.01 386 77.02 386 76 386 C75.67 386.99 75.34 387.98 75 389 C69.77777778 392 69.77777778 392 67 392 C66.67 392.99 66.34 393.98 66 395 C60.77777778 398 60.77777778 398 58 398 C58 398.66 58 399.32 58 400 C56.71086513 400.67154933 55.41859796 401.33708859 54.125 402 C53.40570313 402.37125 52.68640625 402.7425 51.9453125 403.125 C50 404 50 404 48 404 C48 404.66 48 405.32 48 406 C47.38511719 406.25394531 46.77023437 406.50789063 46.13671875 406.76953125 C44.92435547 407.28580078 44.92435547 407.28580078 43.6875 407.8125 C42.88699219 408.14894531 42.08648437 408.48539062 41.26171875 408.83203125 C39.00803809 409.99584907 37.7282708 411.1797484 36 413 C30.66666667 416 30.66666667 416 27 416 C27 416.66 27 417.32 27 418 C24.0645754 419.4677123 21.12890975 420.93488794 18.19140625 422.3984375 C16.29690188 423.34916797 14.4069358 424.30918039 12.52734375 425.2890625 C7.3102518 428 7.3102518 428 4 428 C4 428.66 4 429.32 4 430 C1.69 430.99 -0.62 431.98 -3 433 C2.61 434.65 8.22 436.3 14 438 C14 438.66 14 439.32 14 440 C14.9075 440.103125 15.815 440.20625 16.75 440.3125 C22.26282152 441.08543168 27.62115462 442.59567091 33 444 C33 444.66 33 445.32 33 446 C35.31 446.33 37.62 446.66 40 447 C39.69255859 447.88751953 39.69255859 447.88751953 39.37890625 448.79296875 C38.0002429 452.83660816 36.68249153 456.76855249 36 461 C35.34 461 34.68 461 34 461 C34 462.65 34 464.3 34 466 C32.68 466 31.36 466 30 466 C30 465.34 30 464.68 30 464 C29.071875 463.896875 28.14375 463.79375 27.1875 463.6875 C22.00500168 462.96237678 17.01981384 461.44330995 12 460 C12 459.34 12 458.68 12 458 C11.21625 457.896875 10.4325 457.79375 9.625 457.6875 C4.9676024 456.80420046 0.51807851 455.41971242 -4 454 C-4 453.34 -4 452.68 -4 452 C-4.59167969 451.87882812 -5.18335938 451.75765625 -5.79296875 451.6328125 C-10.03803585 450.73255357 -14.02439661 449.79543379 -18 448 C-18 447.34 -18 446.68 -18 446 C-18.928125 445.855625 -19.85625 445.71125 -20.8125 445.5625 C-24 445 -24 445 -27 444 C-28.68076231 444.63028587 -30.34795544 445.29788106 -32 446 C-32.99 446 -33.98 446 -35 446 C-35 446.66 -35 447.32 -35 448 C-36.74692795 448.67467562 -38.49768525 449.33944156 -40.25 450 C-41.22453125 450.37125 -42.1990625 450.7425 -43.203125 451.125 C-46 452 -46 452 -50 452 C-50 452.66 -50 453.32 -50 454 C-51.93558599 454.67220351 -53.87354372 455.33758077 -55.8125 456 C-56.89144531 456.37125 -57.97039062 456.7425 -59.08203125 457.125 C-62 458 -62 458 -65 458 C-65 458.66 -65 459.32 -65 460 C-67.4363189 460.67126129 -69.87388883 461.33716354 -72.3125 462 C-73.34793945 462.28617187 -73.34793945 462.28617187 -74.40429688 462.578125 C-77.35787949 463.37716184 -79.92559219 464 -83 464 C-83 464.66 -83 465.32 -83 466 C-85.60311992 466.67099984 -88.20735398 467.33695338 -90.8125 468 C-91.55048828 468.19078125 -92.28847656 468.3815625 -93.04882812 468.578125 C-96.10535341 469.35262914 -98.83373478 470 -102 470 C-102 470.66 -102 471.32 -102 472 C-103.98 472 -105.96 472 -108 472 C-107.566875 473.04800781 -107.566875 473.04800781 -107.125 474.1171875 C-106.75375 475.02726562 -106.3825 475.93734375 -106 476.875 C-105.443125 478.23238281 -105.443125 478.23238281 -104.875 479.6171875 C-104 482 -104 482 -104 484 C-103.34 484 -102.68 484 -102 484 C-101.32591692 485.26691507 -100.66099503 486.53870749 -100 487.8125 C-99.62875 488.52019531 -99.2575 489.22789062 -98.875 489.95703125 C-98 492 -98 492 -98 495 C-97.34 495 -96.68 495 -96 495 C-95.73445312 495.56589844 -95.46890625 496.13179688 -95.1953125 496.71484375 C-94.84210938 497.44832031 -94.48890625 498.18179687 -94.125 498.9375 C-93.60292969 500.03384766 -93.60292969 500.03384766 -93.0703125 501.15234375 C-92.1315023 503.16332459 -92.1315023 503.16332459 -90 504 C-89.0703125 505.70703125 -89.0703125 505.70703125 -88.125 507.8125 C-86.50295436 511.2079015 -84.76603814 513.4183644 -82 516 C-81.5359375 516.9590625 -81.5359375 516.9590625 -81.0625 517.9375 C-79.55654997 520.86081477 -77.37197969 522.73834495 -75 525 C-74.195625 525.845625 -73.39125 526.69125 -72.5625 527.5625 C-69.89325928 530.10153386 -67.06872078 531.97743403 -64 534 C-63.67 534.66 -63.34 535.32 -63 536 C-61.34948712 537.11634152 -61.34948712 537.11634152 -59.4375 538.125 C-58.303125 538.74375 -57.16875 539.3625 -56 540 C-56 540.66 -56 541.32 -56 542 C-55.28457031 542.13277344 -54.56914062 542.26554688 -53.83203125 542.40234375 C-51.05811678 542.98773535 -48.39700725 543.73158444 -45.6875 544.5625 C-44.36298828 544.96662109 -44.36298828 544.96662109 -43.01171875 545.37890625 C-42.34785156 545.58386719 -41.68398437 545.78882813 -41 546 C-41 546.66 -41 547.32 -41 548 C-31.43 548 -21.86 548 -12 548 C-12 547.34 -12 546.68 -12 546 C-10.0429132 545.32968281 -8.08428887 544.66385317 -6.125 544 C-5.03445313 543.62875 -3.94390625 543.2575 -2.8203125 542.875 C0 542 0 542 2 542 C2 541.34 2 540.68 2 540 C2.53109375 539.75765625 3.0621875 539.5153125 3.609375 539.265625 C7.77200307 537.29065548 10.91930715 535.50561601 14 532 C15.66666667 530.33333333 17.33333333 528.66666667 19 527 C19.845625 526.113125 20.69125 525.22625 21.5625 524.3125 C24 522 24 522 26.1875 521 C28.79208047 519.56299009 29.06151993 517.74840592 30 515 C30.66 514.01 31.32 513.02 32 512 C32.66 512 33.32 512 34 512 C34.28875 511.2575 34.5775 510.515 34.875 509.75 C35.82302644 507.43260203 36.84845911 505.22082885 38 503 C38.66 503 39.32 503 40 503 C40.66 501.02 41.32 499.04 42 497 C43.32 497.33 44.64 497.66 46 498 C46 498.66 46 499.32 46 500 C48.93720508 501.52299523 51.9168649 502.80100302 55 504 C55 504.66 55 505.32 55 506 C60.445 507.485 60.445 507.485 66 509 C66 509.99 66 510.98 66 512 C65.34 512 64.68 512 64 512 C63.896875 512.825 63.79375 513.65 63.6875 514.5 C62.88353944 518.59289012 61.53647842 522.12540225 60 526 C59.34 526 58.68 526 58 526 C57.71125 526.9075 57.4225 527.815 57.125 528.75 C56.23468224 531.32202908 55.28505587 533.61346766 54 536 C53.34 536 52.68 536 52 536 C51.896875 536.53625 51.79375 537.0725 51.6875 537.625 C50.81907303 540.62502044 49.44379704 543.2379535 48 546 C47.34 546 46.68 546 46 546 C45.7525 546.94875 45.505 547.8975 45.25 548.875 C43.82576013 552.43559968 43.28284113 552.51742659 40 554 C39.38932856 555.85744207 39.38932856 555.85744207 39 558 C36.48445236 562.90531791 33.35092368 567.21635877 28 569 C27.67 569.99 27.34 570.98 27 572 C26.34 572 25.68 572 25 572 C24.67 572.99 24.34 573.98 24 575 C20.7068258 578.66953696 17.25346871 581.5033988 13 584 C12.01 584 11.02 584 10 584 C9.67 584.99 9.34 585.98 9 587 C5.78715662 588.88579937 3.75366417 590 0 590 C0 590.66 0 591.32 0 592 C-1.39449109 592.483059 -2.79066707 592.96125517 -4.1875 593.4375 C-4.96480469 593.70433594 -5.74210937 593.97117187 -6.54296875 594.24609375 C-20.5660918 598.54889621 -39.60629919 598.07325705 -53 592 C-53 591.34 -53 590.68 -53 590 C-53.62648437 589.79503906 -54.25296875 589.59007812 -54.8984375 589.37890625 C-56.12433594 588.97478516 -56.12433594 588.97478516 -57.375 588.5625 C-58.18710938 588.29566406 -58.99921875 588.02882813 -59.8359375 587.75390625 C-62 587 -62 587 -64 586 C-64 585.34 -64 584.68 -64 584 C-64.5775 583.71125 -65.155 583.4225 -65.75 583.125 C-66.4925 582.75375 -67.235 582.3825 -68 582 C-68.639375 581.731875 -69.27875 581.46375 -69.9375 581.1875 C-72.78213025 579.54968258 -74.73931365 577.37096373 -77 575 C-77.845625 574.175 -78.69125 573.35 -79.5625 572.5 C-82 570 -82 570 -84.125 567.3125 C-85.96561073 564.80846331 -85.96561073 564.80846331 -89 563 C-90.02137457 561.34634594 -91.01612294 559.67623498 -92 558 C-93.5729786 555.93496143 -95.17181628 553.89461419 -96.79296875 551.8671875 C-98 550 -98 550 -98 547 C-98.99 546.67 -99.98 546.34 -101 546 C-104 540.77777778 -104 540.77777778 -104 538 C-104.66 538 -105.32 538 -106 538 C-106.67119549 536.5437455 -107.33681807 535.08492133 -108 533.625 C-108.37125 532.81289063 -108.7425 532.00078125 -109.125 531.1640625 C-110 529 -110 529 -110 527 C-110.66 527 -111.32 527 -112 527 C-112.6708712 525.3767313 -113.33657029 523.75132422 -114 522.125 C-114.556875 520.76761719 -114.556875 520.76761719 -115.125 519.3828125 C-116 517 -116 517 -116 515 C-116.66 515 -117.32 515 -118 515 C-118.67057887 513.2097939 -119.3363469 511.41778511 -120 509.625 C-120.37125 508.62726562 -120.7425 507.62953125 -121.125 506.6015625 C-122 504 -122 504 -122 502 C-122.66 502 -123.32 502 -124 502 C-125.32 496.72 -126.64 491.44 -128 486 C-128.66 486 -129.32 486 -130 486 C-130.33 483.69 -130.66 481.38 -131 479 C-135.39726457 479.5459118 -139.79378645 480.09736956 -144.18969727 480.65405273 C-145.68624864 480.84276742 -147.18299451 481.02994619 -148.67993164 481.21557617 C-150.82751205 481.48215765 -152.9743399 481.7541961 -155.12109375 482.02734375 C-157.06133423 482.27085571 -157.06133423 482.27085571 -159.04077148 482.51928711 C-161.87933264 482.68447339 -161.87933264 482.68447339 -163 484 C-172.66444238 485.31999117 -182.50664816 485.15576539 -192.23950195 485.13037109 C-194.6942353 485.12498522 -197.1487876 485.13036378 -199.60351562 485.13671875 C-207.47194046 485.13970068 -215.18088157 484.99818533 -223 484 C-223 483.34 -223 482.68 -223 482 C-223.79921875 481.96261719 -224.5984375 481.92523438 -225.421875 481.88671875 C-233.25326247 481.41793851 -240.46154832 480.15966453 -248 478 C-248 477.34 -248 476.68 -248 476 C-248.825 475.896875 -249.65 475.79375 -250.5 475.6875 C-254.59289012 474.88353944 -258.12540225 473.53647842 -262 472 C-262 471.34 -262 470.68 -262 470 C-263.299375 469.6596875 -263.299375 469.6596875 -264.625 469.3125 C-268.50924732 467.80195937 -270.90229494 465.76099799 -274 463 C-274.78375 462.443125 -275.5675 461.88625 -276.375 461.3125 C-276.91125 460.879375 -277.4475 460.44625 -278 460 C-278 459.34 -278 458.68 -278 458 C-278.66 458 -279.32 458 -280 458 C-284 452.58823529 -284 452.58823529 -284 450 C-284.99 449.67 -285.98 449.34 -287 449 C-288.74672985 445.5065403 -290 442.93154432 -290 439 C-290.66 439 -291.32 439 -292 439 C-294.54138068 430.46698148 -295.48208948 422.63651459 -295.375 413.75 C-295.36919922 412.57719482 -295.36339844 411.40438965 -295.35742188 410.19604492 C-295.22325759 401.18032909 -294.24724697 392.73483495 -292 384 C-291.34 384 -290.68 384 -290 384 C-289.87882812 383.34773438 -289.75765625 382.69546875 -289.6328125 382.0234375 C-288.71056011 377.21353658 -287.69832723 372.60974535 -286 368 C-285.34 368 -284.68 368 -284 368 C-283.896875 367.319375 -283.79375 366.63875 -283.6875 365.9375 C-282.85274981 362.37084011 -281.50527246 359.33777806 -280 356 C-279.34 356 -278.68 356 -278 356 C-277.896875 355.29875 -277.79375 354.5975 -277.6875 353.875 C-276.90640997 350.60862353 -275.57941257 347.9528148 -274 345 C-273.34 345 -272.68 345 -272 345 C-271.896875 344.46375 -271.79375 343.9275 -271.6875 343.375 C-270.36227076 338.79693535 -268.41926847 335.27679895 -265 332 C-264.484375 331.113125 -263.96875 330.22625 -263.4375 329.3125 C-262.963125 328.549375 -262.48875 327.78625 -262 327 C-261.34 327 -260.68 327 -260 327 C-259.855625 326.38125 -259.71125 325.7625 -259.5625 325.125 C-259 323 -259 323 -258 321 C-255 321 -255 321 -253.3125 322.375 C-252 324 -252 324 -252 326 C-251.071875 326.28875 -250.14375 326.5775 -249.1875 326.875 C-246 328 -246 328 -243 330 C-243 330.66 -243 331.32 -243 332 C-240.03 332.33 -237.06 332.66 -234 333 C-234 333.99 -234 334.98 -234 336 C-234.66 336 -235.32 336 -236 336 C-236.20496094 336.69867188 -236.40992188 337.39734375 -236.62109375 338.1171875 C-236.89050781 339.02726562 -237.15992188 339.93734375 -237.4375 340.875 C-237.70433594 341.77992188 -237.97117188 342.68484375 -238.24609375 343.6171875 C-239 346 -239 346 -240 348 C-240.66 348 -241.32 348 -242 348 C-242.30744141 349.15628906 -242.30744141 349.15628906 -242.62109375 350.3359375 C-242.89050781 351.33882813 -243.15992188 352.34171875 -243.4375 353.375 C-243.70433594 354.37273437 -243.97117188 355.37046875 -244.24609375 356.3984375 C-245 359 -245 359 -246 361 C-246.66 361 -247.32 361 -248 361 C-248.185625 362.918125 -248.185625 362.918125 -248.375 364.875 C-248.74805758 368.28048277 -249.28846921 371.58693336 -250 374.9375 C-251.05082715 379.93284994 -251.58895464 384.91601796 -252 390 C-252.66 390 -253.32 390 -254 390 C-252.16167699 400.03906893 -250.19608323 410.03196264 -248 420 C-247.34 420 -246.68 420 -246 420 C-245.69707031 420.58007812 -245.39414063 421.16015625 -245.08203125 421.7578125 C-241.3614915 428.69518816 -238.05381125 434.08121597 -231 438 C-230.67 438.66 -230.34 439.32 -230 440 C-227.88984046 441.12706706 -227.88984046 441.12706706 -225.4375 442.125 C-224.19806641 442.65480469 -224.19806641 442.65480469 -222.93359375 443.1953125 C-222.29550781 443.46085937 -221.65742188 443.72640625 -221 444 C-221 444.66 -221 445.32 -221 446 C-220.24074219 446.20496094 -219.48148437 446.40992188 -218.69921875 446.62109375 C-217.20841797 447.02521484 -217.20841797 447.02521484 -215.6875 447.4375 C-214.70136719 447.70433594 -213.71523437 447.97117187 -212.69921875 448.24609375 C-210.78482474 448.78079425 -208.88566385 449.37144538 -207 450 C-207 450.66 -207 451.32 -207 452 C-206.45214844 452.04898437 -205.90429688 452.09796875 -205.33984375 452.1484375 C-201.47945104 452.51250706 -197.64263645 452.90092483 -193.80908203 453.49194336 C-184.29813573 454.95153085 -175.00383143 455.28011279 -165.38989258 455.20581055 C-162.90891442 455.18728657 -160.42830654 455.18530356 -157.94726562 455.18554688 C-156.34895513 455.18063884 -154.75064712 455.17481367 -153.15234375 455.16796875 C-152.42103745 455.16685593 -151.68973114 455.1657431 -150.93626404 455.16459656 C-146.85820503 455.12699366 -143.00189947 454.78657077 -139 454 C-139.33 451.03 -139.66 448.06 -140 445 C-140.66 445 -141.32 445 -142 445 C-142.67806317 441.8148163 -143.34035151 438.62654387 -144 435.4375 C-144.19078125 434.54224609 -144.3815625 433.64699219 -144.578125 432.72460938 C-145.60729907 427.70738579 -146.22479032 423.12100455 -146 418 C-146.66 418 -147.32 418 -148 418 C-148.57777225 414.0358831 -149.14706632 410.07064413 -149.70898438 406.10424805 C-149.90074412 404.75887325 -150.09470165 403.4138096 -150.29101562 402.0690918 C-151.37192556 394.65438057 -152.26335707 387.49744672 -152 380 C-152.66 380 -153.32 380 -154 380 C-154.33 376.04 -154.66 372.08 -155 368 C-156.65 367.34 -158.3 366.68 -160 366 C-160.598125 365.38125 -161.19625 364.7625 -161.8125 364.125 C-163.92468349 362.07316461 -165.43515002 361.2177863 -168.0625 360 C-171.36595076 358.44902681 -172.95467222 357.06799167 -175 354 C-175.66 353.67 -176.32 353.34 -177 353 C-179.46735884 351.76632058 -180.3608576 350.1855232 -182 348 C-183.32467746 347.3162955 -184.65863633 346.65035814 -186 346 C-187.35735142 344.69112542 -188.68505488 343.35147138 -190 342 C-192.08531913 340.2125836 -194.18270547 338.44149396 -196.29296875 336.68359375 C-198 335 -198 335 -199 332 C-201.01508358 331.26676204 -201.01508358 331.26676204 -203 331 C-203.33 329.68 -203.66 328.36 -204 327 C-203.38125 326.9175 -202.7625 326.835 -202.125 326.75 C-199.32494581 325.76174558 -199.25886068 324.59640015 -198 322 C-197.01 321.5359375 -197.01 321.5359375 -196 321.0625 C-193.25013332 319.60163333 -192.91166696 317.88694538 -192 315 C-187.71657993 315.47593556 -185.84426611 317.94761685 -183 321 C-180.43324403 323.69838448 -178.10451137 325.93032576 -175 328 C-170.82961848 330.78025434 -167.7758241 333.83626385 -165 338 C-163.33720673 339.0064275 -161.67016516 340.00585407 -160 341 C-158.63015802 342.29579647 -157.2848951 343.61992749 -156 345 C-156.33 344.34 -156.66 343.68 -157 343 C-157.36758296 339.51386244 -157.43325659 336.00207095 -157.5625 332.5 C-157.6042334 331.37650146 -157.6459668 330.25300293 -157.68896484 329.09545898 C-158.56391505 302.08449623 -158.3672962 274.98955424 -157 248 C-157.66 248 -158.32 248 -159 248 C-159.3403125 248.928125 -159.3403125 248.928125 -159.6875 249.875 C-161.38862958 252.6292098 -163.05376154 252.82150461 -166 254 C-167.05021103 255.84971696 -167.05021103 255.84971696 -168 258 C-171.08255642 261.41580577 -174.08787748 263.65272649 -178 266 C-180.49359509 268.31548116 -182.68162567 270.56370924 -184.6875 273.3125 C-185.120625 273.869375 -185.55375 274.42625 -186 275 C-186.66 275 -187.32 275 -188 275 C-188 275.66 -188 276.32 -188 277 C-189.875 276.8125 -189.875 276.8125 -192 276 C-192.69040574 274.34302621 -193.3530635 272.6744239 -194 271 C-196.53029689 268.21018548 -198.86430983 266.09046011 -202 264 C-202 261 -202 261 -199.9375 258.6875 C-196.68615998 255.71286977 -193.37690589 252.83053011 -190 250 C-189.0925 249.236875 -188.185 248.47375 -187.25 247.6875 C-186.53650391 247.0996875 -186.53650391 247.0996875 -185.80859375 246.5 C-184.29076196 245.24115031 -182.78631564 243.96618541 -181.28515625 242.6875 C-180.30417969 241.8625 -179.32320313 241.0375 -178.3125 240.1875 C-177.38050781 239.39730469 -176.44851562 238.60710937 -175.48828125 237.79296875 C-173 236 -173 236 -170 236 C-169.7525 235.38125 -169.505 234.7625 -169.25 234.125 C-167.74997691 231.57496075 -166.6302751 231.23777652 -164 230 C-163.34 229.34 -162.68 228.68 -162 228 C-160.05440409 226.05440409 -158.44122575 225.17852277 -156 224 C-154.78306124 221.56612247 -154.68040104 219.58161154 -154.4375 216.875 C-154.35371094 215.96492187 -154.26992187 215.05484375 -154.18359375 214.1171875 C-154.12300781 213.41851562 -154.06242188 212.71984375 -154 212 C-153.34 212 -152.68 212 -152 212 C-152.04125 210.82566406 -152.0825 209.65132812 -152.125 208.44140625 C-152.125 201.53458554 -150.99554494 194.75681582 -150 187.9375 C-149.80672033 186.58146152 -149.61400763 185.2253421 -149.421875 183.86914062 C-148.95346925 180.57859025 -148.47936892 177.28896801 -148 174 C-147.34 174 -146.68 174 -146 174 C-145.96261719 173.30777344 -145.92523438 172.61554688 -145.88671875 171.90234375 C-145.31526859 163.39782085 -143.80604086 155.3146032 -142 147 C-141.34 147 -140.68 147 -140 147 C-139.67 144.03 -139.34 141.06 -139 138 C-146.90190023 136.93147696 -154.71901035 136.76951387 -162.6875 136.75 C-163.36520447 136.74766357 -164.04290894 136.74532715 -164.7411499 136.74291992 C-176.35249435 136.72789038 -187.57347756 137.7977541 -199.02441406 139.71875 C-201.36585443 140.05208407 -203.63869359 140.11565582 -206 140 C-206 140.66 -206 141.32 -206 142 C-208.12392506 142.6700834 -210.24917524 143.33596797 -212.375 144 C-213.55835938 144.37125 -214.74171875 144.7425 -215.9609375 145.125 C-219 146 -219 146 -221 146 C-221 146.66 -221 147.32 -221 148 C-221.61488281 148.24234375 -222.22976562 148.4846875 -222.86328125 148.734375 C-228.8397244 151.19580076 -228.8397244 151.19580076 -233 156 C-233.66 156.309375 -234.32 156.61875 -235 156.9375 C-237.73268892 158.38924099 -238.50567952 160.33621131 -240 163 C-240.495 163.474375 -240.99 163.94875 -241.5 164.4375 C-243.63032356 166.65658704 -244.70831095 169.23209489 -246 172 C-246.66 172 -247.32 172 -248 172 C-249.29420306 177.36169839 -250.26387121 182.65661473 -251 188.125 C-251.65496331 192.9280643 -252.46828839 197.40486518 -254 202 C-253.34 202 -252.68 202 -252 202 C-251.87882812 203.05058594 -251.75765625 204.10117188 -251.6328125 205.18359375 C-250.59533312 214.27263398 -250.59533312 214.27263398 -248.875 223.25 C-248 227 -248 227 -248 231 C-247.34 231 -246.68 231 -246 231 C-245.32739649 232.76858691 -244.66211605 234.53996016 -244 236.3125 C-243.62875 237.29863281 -243.2575 238.28476563 -242.875 239.30078125 C-242 242 -242 242 -242 245 C-241.34 245 -240.68 245 -240 245 C-239.32645501 246.43429001 -238.66140299 247.87257057 -238 249.3125 C-237.62875 250.11300781 -237.2575 250.91351563 -236.875 251.73828125 C-236 254 -236 254 -236 257 C-236.95712891 257.29003906 -236.95712891 257.29003906 -237.93359375 257.5859375 C-239.17302734 257.97652344 -239.17302734 257.97652344 -240.4375 258.375 C-241.26121094 258.63023437 -242.08492187 258.88546875 -242.93359375 259.1484375 C-245.17798016 259.80882227 -245.17798016 259.80882227 -246 262 C-247.99030913 263.04108478 -250.02821976 263.91418567 -252.08984375 264.8046875 C-254.37851364 266.2368613 -255.0121445 267.52777525 -256 270 C-256.99 270 -257.98 270 -259 270 C-259.0825 269.21625 -259.165 268.4325 -259.25 267.625 C-259.4975 266.75875 -259.745 265.8925 -260 265 C-260.639375 264.690625 -261.27875 264.38125 -261.9375 264.0625 C-264 263 -264 263 -265.25 259.875 C-265.4975 258.92625 -265.745 257.9775 -266 257 C-266.66 257 -267.32 257 -268 257 C-272 250.375 -272 250.375 -272 247 C-272.66 247 -273.32 247 -274 247 C-274.67408308 245.73308493 -275.33900497 244.46129251 -276 243.1875 C-276.37125 242.47980469 -276.7425 241.77210938 -277.125 241.04296875 C-278 239 -278 239 -278 236 C-278.66 236 -279.32 236 -280 236 C-280.67354499 234.56570999 -281.33859701 233.12742943 -282 231.6875 C-282.556875 230.48673828 -282.556875 230.48673828 -283.125 229.26171875 C-284 227 -284 227 -284 224 C-284.66 224 -285.32 224 -286 224 C-286.67184618 221.89748139 -287.33730968 219.79292237 -288 217.6875 C-288.556875 215.92986328 -288.556875 215.92986328 -289.125 214.13671875 C-290 211 -290 211 -290 208 C-290.66 208 -291.32 208 -292 208 C-294.5544861 198.07095581 -295.32435851 188.48872553 -295.375 178.25 C-295.38853516 177.12682373 -295.40207031 176.00364746 -295.41601562 174.84643555 C-295.37555271 167.17927525 -294.18698005 160.34307196 -292 153 C-291.34 153 -290.68 153 -290 153 C-289.896875 152.29875 -289.79375 151.5975 -289.6875 150.875 C-288.90640997 147.60862353 -287.57941257 144.9528148 -286 142 C-285.34 142 -284.68 142 -284 142 C-283.773125 141.278125 -283.54625 140.55625 -283.3125 139.8125 C-280.8837039 134.60793693 -276.40792246 131.50373323 -272 128 C-271.360625 127.29875 -270.72125 126.5975 -270.0625 125.875 C-267.55295517 123.59359561 -265.24202287 122.88418806 -262 122 C-262 121.34 -262 120.68 -262 120 C-260.25307205 119.32532438 -258.50231475 118.66055844 -256.75 118 C-255.77546875 117.62875 -254.8009375 117.2575 -253.796875 116.875 C-251 116 -251 116 -247 116 C-247 115.34 -247 114.68 -247 114 C-238.65773999 111.61005524 -230.66540227 110.4053172 -222 110 C-222 109.34 -222 108.68 -222 108 C-213.75402042 107.0447328 -205.56016049 106.84425366 -197.26733398 106.86962891 C-195.20093357 106.87496531 -193.13475304 106.8696628 -191.06835938 106.86328125 C-182.3375492 106.85938444 -173.70115605 107.25197151 -165 108 C-165 108.66 -165 109.32 -165 110 C-163.12441406 109.95552734 -163.12441406 109.95552734 -161.2109375 109.91015625 C-155.60371628 109.91125441 -150.16646734 110.6378923 -144.625 111.4375 C-143.14966797 111.63956055 -143.14966797 111.63956055 -141.64453125 111.84570312 C-134.42663445 112.85778852 -134.42663445 112.85778852 -131 114 C-130.67 111.69 -130.34 109.38 -130 107 C-129.34 107 -128.68 107 -128 107 C-127.87044922 105.98292969 -127.87044922 105.98292969 -127.73828125 104.9453125 C-126.80531142 98.7654573 -125.21278535 93.92168064 -122.2421875 88.4375 C-120.3735051 84.77065151 -119.16948813 80.9363259 -118 77 C-117.34 77 -116.68 77 -116 77 C-115.69255859 76.07767578 -115.69255859 76.07767578 -115.37890625 75.13671875 C-114.25260417 71.7578125 -113.12630208 68.37890625 -112 65 C-111.34 65 -110.68 65 -110 65 C-109.69255859 64.06027344 -109.69255859 64.06027344 -109.37890625 63.1015625 C-108.97478516 61.87566406 -108.97478516 61.87566406 -108.5625 60.625 C-108.29566406 59.81289062 -108.02882812 59.00078125 -107.75390625 58.1640625 C-107 56 -107 56 -106 54 C-105.34 54 -104.68 54 -104 54 C-103.71125 53.071875 -103.4225 52.14375 -103.125 51.1875 C-102 48 -102 48 -100 45 C-99.34 45 -98.68 45 -98 45 C-97.896875 44.443125 -97.79375 43.88625 -97.6875 43.3125 C-96.85821592 40.5230899 -95.65700944 38.3860936 -94 36 C-93.34 36 -92.68 36 -92 36 C-91.71125 35.4225 -91.4225 34.845 -91.125 34.25 C-90.568125 33.13625 -90.568125 33.13625 -90 32 C-89.731875 31.360625 -89.46375 30.72125 -89.1875 30.0625 C-87.54968258 27.21786975 -85.37096373 25.26068635 -83 23 C-82.175 22.154375 -81.35 21.30875 -80.5 20.4375 C-78.1095422 18.10680364 -75.61799003 16.06683424 -73 14 C-72.2575 13.2265625 -72.2575 13.2265625 -71.5 12.4375 C-70 11 -70 11 -67.375 9.4375 C-64.88809625 8.22087094 -64.88809625 8.22087094 -64 6 C-62.00390625 4.9296875 -62.00390625 4.9296875 -59.5625 3.875 C-58.75941406 3.52179687 -57.95632812 3.16859375 -57.12890625 2.8046875 C-55 2 -55 2 -53 2 C-53 1.34 -53 0.68 -53 0 C-35.73985389 -6.10785581 -17.26014611 -6.10785581 0 0 Z M-117 140 C-117.50692692 141.5811292 -118.00526443 143.16501383 -118.5 144.75 C-118.7784375 145.63171875 -119.056875 146.5134375 -119.34375 147.421875 C-120.16445285 150.20267529 -120.16445285 150.20267529 -120 154 C-120.66 154 -121.32 154 -122 154 C-122.67404284 156.56076097 -123.339414 159.12326583 -124 161.6875 C-124.19078125 162.40873047 -124.3815625 163.12996094 -124.578125 163.87304688 C-125.54865428 167.66850961 -126.24955239 171.04615439 -126 175 C-126.66 175 -127.32 175 -128 175 C-128.67511469 178.7068465 -129.33858041 182.41568744 -130 186.125 C-130.19078125 187.17171875 -130.3815625 188.2184375 -130.578125 189.296875 C-130.75859375 190.31523437 -130.9390625 191.33359375 -131.125 192.3828125 C-131.29257813 193.31496582 -131.46015625 194.24711914 -131.6328125 195.20751953 C-132.0221472 198.1684306 -132.06158415 201.01701762 -132 204 C-132.66 204 -133.32 204 -134 204 C-133.67 205.32 -133.34 206.64 -133 208 C-131.515 207.01 -131.515 207.01 -130 206 C-130 205.34 -130 204.68 -130 204 C-129.195625 203.8453125 -129.195625 203.8453125 -128.375 203.6875 C-125.37497956 202.81907303 -122.7620465 201.44379704 -120 200 C-120 199.34 -120 198.68 -120 198 C-118.63875 197.566875 -118.63875 197.566875 -117.25 197.125 C-114.67797092 196.23468224 -112.38653234 195.28505587 -110 194 C-110 193.34 -110 192.68 -110 192 C-109.071875 191.71125 -108.14375 191.4225 -107.1875 191.125 C-103.90208333 190.1125 -103.90208333 190.1125 -101 188 C-101 187.34 -101 186.68 -101 186 C-99.948125 185.8453125 -99.948125 185.8453125 -98.875 185.6875 C-95.60862353 184.90640997 -92.9528148 183.57941257 -90 182 C-90 181.34 -90 180.68 -90 180 C-89.113125 179.71125 -88.22625 179.4225 -87.3125 179.125 C-84.49617576 178.16851252 -81.74916844 177.13201054 -79 176 C-79 175.34 -79 174.68 -79 174 C-78.113125 173.71125 -77.22625 173.4225 -76.3125 173.125 C-73.49617576 172.16851252 -70.74916844 171.13201054 -68 170 C-68 169.34 -68 168.68 -68 168 C-64 166.66666667 -60 165.33333333 -56 164 C-56 163.34 -56 162.68 -56 162 C-54.02 161.34 -52.04 160.68 -50 160 C-50 159.34 -50 158.68 -50 158 C-52.26949102 157.32844651 -54.5403961 156.6626037 -56.8125 156 C-58.07707031 155.62875 -59.34164062 155.2575 -60.64453125 154.875 C-63.90587415 153.87383491 -63.90587415 153.87383491 -67 154 C-67 153.34 -67 152.68 -67 152 C-69.56076097 151.32595716 -72.12326583 150.660586 -74.6875 150 C-75.40873047 149.80921875 -76.12996094 149.6184375 -76.87304688 149.421875 C-80.66850961 148.45134572 -84.04615439 147.75044761 -88 148 C-88 147.34 -88 146.68 -88 146 C-91.03949302 145.32315702 -94.08189165 144.66038128 -97.125 144 C-97.9809375 143.80921875 -98.836875 143.6184375 -99.71875 143.421875 C-104.22732794 142.45079667 -108.35645604 141.75640425 -113 142 C-113 141.34 -113 140.68 -113 140 C-114.32 140 -115.64 140 -117 140 Z M-33 170 C-33 170.66 -33 171.32 -33 172 C-37 173.33333333 -41 174.66666667 -45 176 C-45 176.66 -45 177.32 -45 178 C-45.845625 178.103125 -46.69125 178.20625 -47.5625 178.3125 C-51.41442701 179.0828854 -54.44075031 180.36274514 -58 182 C-58 182.66 -58 183.32 -58 184 C-59.3303125 184.433125 -59.3303125 184.433125 -60.6875 184.875 C-63.50382424 185.83148748 -66.25083156 186.86798946 -69 188 C-69 188.66 -69 189.32 -69 190 C-70.0725 190.28875 -71.145 190.5775 -72.25 190.875 C-75.09400364 191.72820109 -77.43508983 192.5636503 -80 194 C-80 194.66 -80 195.32 -80 196 C-81.093125 196.28875 -82.18625 196.5775 -83.3125 196.875 C-87.04013845 197.81893204 -87.04013845 197.81893204 -90 200 C-90 200.66 -90 201.32 -90 202 C-90.63808594 202.18175781 -91.27617187 202.36351562 -91.93359375 202.55078125 C-93.17302734 202.92783203 -93.17302734 202.92783203 -94.4375 203.3125 C-95.26121094 203.55613281 -96.08492187 203.79976562 -96.93359375 204.05078125 C-97.61550781 204.36402344 -98.29742187 204.67726562 -99 205 C-99.33 205.99 -99.66 206.98 -100 208 C-102.8125 209.0625 -102.8125 209.0625 -106 210 C-107.34721283 210.63815344 -108.68747118 211.29325371 -110 212 C-110 212.66 -110 213.32 -110 214 C-110.94875 214.2475 -111.8975 214.495 -112.875 214.75 C-116.09515628 215.63667603 -116.09515628 215.63667603 -117 218 C-118 220 -118 220 -120.875 221.125 C-122.421875 221.558125 -122.421875 221.558125 -124 222 C-126.593341 223.06784629 -127.997499 223.997499 -130 226 C-132 228 -132 228 -134.125 228.75 C-136.7125263 230.47501753 -137.07313889 232.47318545 -137.6953125 235.42578125 C-138.30779872 240.60050458 -138.14269276 245.79964174 -138 251 C-138.66 251 -139.32 251 -140 251 C-140.99110264 264.81673833 -141.15519023 278.59135087 -141.13037109 292.44042969 C-141.12500878 295.994184 -141.13035002 299.54781198 -141.13671875 303.1015625 C-141.14002591 315.76930246 -140.90647669 328.36301282 -140 341 C-139.34 341 -138.68 341 -138 341 C-138.02320313 341.845625 -138.04640625 342.69125 -138.0703125 343.5625 C-138.3400752 353.00156586 -138.3400752 353.00156586 -136 362 C-133.77201686 363.7779964 -131.61363964 364.76196017 -129 366 C-128 367 -127 368 -126 369 C-125.030625 369.474375 -124.06125 369.94875 -123.0625 370.4375 C-120 372 -120 372 -118 374.0625 C-115.53739548 376.44814813 -113.27188988 377.1076664 -110 378 C-110 378.66 -110 379.32 -110 380 C-108.71086513 380.67154933 -107.41859796 381.33708859 -106.125 382 C-105.40570313 382.37125 -104.68640625 382.7425 -103.9453125 383.125 C-102.05151023 384.13673746 -102.05151023 384.13673746 -100 384 C-99.67 384.99 -99.34 385.98 -99 387 C-95.78715662 388.88579937 -93.75366417 390 -90 390 C-89.67 390.99 -89.34 391.98 -89 393 C-86.68191636 394.03485877 -84.34824702 395.0355414 -82 396 C-81.67 396.66 -81.34 397.32 -81 398 C-78.95980949 399.13006767 -78.95980949 399.13006767 -76.5625 400.125 C-75.75941406 400.47820312 -74.95632812 400.83140625 -74.12890625 401.1953125 C-72.06751523 402.11785582 -72.06751523 402.11785582 -70 402 C-70 402.66 -70 403.32 -70 404 C-68.3767313 404.6708712 -66.75132422 405.33657029 -65.125 406 C-63.76761719 406.556875 -63.76761719 406.556875 -62.3828125 407.125 C-60.11016142 408.11490226 -60.11016142 408.11490226 -58 408 C-58 408.66 -58 409.32 -58 410 C-56.3767313 410.6708712 -54.75132422 411.33657029 -53.125 412 C-51.76761719 412.556875 -51.76761719 412.556875 -50.3828125 413.125 C-48.11016142 414.11490226 -48.11016142 414.11490226 -46 414 C-46 414.66 -46 415.32 -46 416 C-44.2097939 416.67057887 -42.41778511 417.3363469 -40.625 418 C-39.62726563 418.37125 -38.62953125 418.7425 -37.6015625 419.125 C-35.14151939 420.10626277 -35.14151939 420.10626277 -33 420 C-33 420.66 -33 421.32 -33 422 C-27.95902516 424.44847349 -25.1554311 423.71847703 -20 422 C-20 421.34 -20 420.68 -20 420 C-18.1746875 419.566875 -18.1746875 419.566875 -16.3125 419.125 C-13.08185352 418.32164208 -10.05679065 417.33734591 -7 416 C-7 415.34 -7 414.68 -7 414 C-3 412.66666667 1 411.33333333 5 410 C5 409.34 5 408.68 5 408 C9 406.66666667 13 405.33333333 17 404 C17 403.34 17 402.68 17 402 C18.3303125 401.566875 18.3303125 401.566875 19.6875 401.125 C22.50382424 400.16851252 25.25083156 399.13201054 28 398 C28 397.34 28 396.68 28 396 C29.3921875 395.566875 29.3921875 395.566875 30.8125 395.125 C34.09791667 394.1125 34.09791667 394.1125 37 392 C37 391.34 37 390.68 37 390 C37.70125 389.896875 38.4025 389.79375 39.125 389.6875 C42.42045139 388.89945728 45.05850781 387.67130238 48 386 C48.33 385.34 48.66 384.68 49 384 C51.2572026 382.51685009 53.6261783 381.29481183 56 380 C56 379.34 56 378.68 56 378 C56.53625 377.896875 57.0725 377.79375 57.625 377.6875 C60.65012928 376.81180468 63.2504489 375.52752839 66 374 C66.33 373.34 66.66 372.68 67 372 C69.2572026 370.51685009 71.6261783 369.29481183 74 368 C74 367.34 74 366.68 74 366 C75.11375 365.566875 75.11375 365.566875 76.25 365.125 C77.1575 364.75375 78.065 364.3825 79 364 C79.721875 363.7525 80.44375 363.505 81.1875 363.25 C83.92271026 361.36364809 84.12100917 359.15249877 85 356 C86.33103557 346.08001795 86.11676021 335.98948434 86 326 C86.66 326 87.32 326 88 326 C88 306.2 88 286.4 88 266 C87.34 266 86.68 266 86 266 C86.01740234 264.51113281 86.01740234 264.51113281 86.03515625 262.9921875 C86.71163651 246.13427774 86.71163651 246.13427774 83 230 C80.4820921 227.7790152 77.42458155 226 74 226 C74 225.34 74 224.68 74 224 C72.906875 223.401875 71.81375 222.80375 70.6875 222.1875 C68.04935977 220.68603342 66.10039697 219.19586956 64 217 C60.32882462 214.49290989 60.32882462 214.49290989 56 214 C56 213.34 56 212.68 56 212 C54.88625 211.34 53.7725 210.68 52.625 210 C51.99851562 209.62875 51.37203125 209.2575 50.7265625 208.875 C49.02527333 207.84931652 49.02527333 207.84931652 47 208 C46.67 207.01 46.34 206.02 46 205 C42.78715662 203.11420063 40.75366417 202 37 202 C37 201.34 37 200.68 37 200 C35.73308493 199.32591692 34.46129251 198.66099503 33.1875 198 C32.12595703 197.443125 32.12595703 197.443125 31.04296875 196.875 C28.91079271 195.80314642 28.91079271 195.80314642 26 196 C26 195.34 26 194.68 26 194 C24.71086513 193.32845067 23.41859796 192.66291141 22.125 192 C21.04605469 191.443125 21.04605469 191.443125 19.9453125 190.875 C18.05151023 189.86326254 18.05151023 189.86326254 16 190 C16 189.34 16 188.68 16 188 C14.5437455 187.32880451 13.08492133 186.66318193 11.625 186 C10.81289063 185.62875 10.00078125 185.2575 9.1640625 184.875 C7.08001567 183.87504987 7.08001567 183.87504987 5 184 C5 183.34 5 182.68 5 182 C3.3767313 181.3291288 1.75132422 180.66342971 0.125 180 C-0.77992188 179.62875 -1.68484375 179.2575 -2.6171875 178.875 C-4.88983858 177.88509774 -4.88983858 177.88509774 -7 178 C-7 177.34 -7 176.68 -7 176 C-8.7902061 175.32942113 -10.58221489 174.6636531 -12.375 174 C-13.37273437 173.62875 -14.37046875 173.2575 -15.3984375 172.875 C-17.85848061 171.89373723 -17.85848061 171.89373723 -20 172 C-20 171.34 -20 170.68 -20 170 C-25.14089313 168.14927847 -27.95531271 167.78525924 -33 170 Z M104 248 C104 279.68 104 311.36 104 344 C106.16877727 344.22713951 106.16877727 344.22713951 107.8125 342.3125 C108.534375 341.549375 109.25625 340.78625 110 340 C113.16683166 336.67076672 116.08262829 334.35042303 120 332 C121.70884005 330.37660195 123.37446717 328.70680947 125 327 C125.845625 326.175 126.69125 325.35 127.5625 324.5 C130.00896893 322.07236296 130.00896893 322.07236296 132 319.5 C134.84549619 315.94312976 137.89804118 312.85401808 141.5 310.0625 C144.42320625 307.65085484 146.60595036 304.9327108 149 302 C150.3921875 300.63875 150.3921875 300.63875 151.8125 299.25 C154.23235946 297.28401795 154.23235946 297.28401795 154 295 C152.37897032 293.28891311 150.70496537 291.62746694 149 290 C147.66666667 288.66666667 146.33333333 287.33333333 145 286 C144.175 285.195625 143.35 284.39125 142.5 283.5625 C140.14485106 281.14847233 138.10461228 278.63076536 136 276 C134.3545622 274.31237149 132.68711423 272.6459651 131 271 C130.195625 270.154375 129.39125 269.30875 128.5625 268.4375 C126.05503832 265.91279642 126.05503832 265.91279642 123 264 C119.18889354 261.45926236 116.14546924 258.62274809 113.5 254.875 C111.64909973 252.56137466 109.54575672 251.47385915 107 250 C106.67 249.34 106.34 248.68 106 248 C105.34 248 104.68 248 104 248 Z M-134 384 C-134 385.32 -134 386.64 -134 388 C-133.34 388 -132.68 388 -132 388 C-131.96261719 388.66902344 -131.92523438 389.33804687 -131.88671875 390.02734375 C-131.26186463 399.15511467 -129.69117967 408.02292051 -128 417 C-127.34 417 -126.68 417 -126 417 C-125.896875 418.2375 -125.79375 419.475 -125.6875 420.75 C-125.04831894 426.64362532 -123.53722003 432.28618214 -122 438 C-121.34 438 -120.68 438 -120 438 C-119.87625 439.19625 -119.7525 440.3925 -119.625 441.625 C-119.17674946 445.27596813 -118.29553163 448.54524899 -117 452 C-115.35 452 -113.7 452 -112 452 C-112 451.34 -112 450.68 -112 450 C-111.06994141 449.94392578 -111.06994141 449.94392578 -110.12109375 449.88671875 C-101.91598451 449.27760584 -94.02761202 447.72252404 -86 446 C-86 445.34 -86 444.68 -86 444 C-85.2265625 443.87882812 -84.453125 443.75765625 -83.65625 443.6328125 C-77.68117941 442.67147688 -71.84407421 441.57340459 -66 440 C-66 439.34 -66 438.68 -66 438 C-60.39 436.68 -54.78 435.36 -49 434 C-49.85907445 431.76778305 -49.85907445 431.76778305 -52.375 430.875 C-55.01317616 429.84188612 -55.01317616 429.84188612 -58 430 C-58 429.34 -58 428.68 -58 428 C-58.63808594 427.73445313 -59.27617187 427.46890625 -59.93359375 427.1953125 C-60.75988281 426.84210938 -61.58617187 426.48890625 -62.4375 426.125 C-63.26121094 425.77695312 -64.08492188 425.42890625 -64.93359375 425.0703125 C-67 424 -67 424 -68 422 C-70.27069703 420.86604517 -70.27069703 420.86604517 -72.9375 419.875 C-73.83339844 419.52179688 -74.72929687 419.16859375 -75.65234375 418.8046875 C-77.9017019 417.89191872 -77.9017019 417.89191872 -80 418 C-80 417.34 -80 416.68 -80 416 C-80.66386719 415.67386719 -81.32773438 415.34773438 -82.01171875 415.01171875 C-89.50824253 411.30176027 -89.50824253 411.30176027 -92.75 409.3125 C-95.40073487 407.76623799 -98.06991325 406.88584018 -101 406 C-101 405.34 -101 404.68 -101 404 C-101.56589844 403.73445313 -102.13179687 403.46890625 -102.71484375 403.1953125 C-103.44832031 402.84210938 -104.18179688 402.48890625 -104.9375 402.125 C-105.66839844 401.77695312 -106.39929688 401.42890625 -107.15234375 401.0703125 C-109 400 -109 400 -110 398 C-112.21526472 396.91001915 -114.48340554 396.01889061 -116.7734375 395.09765625 C-119.04145657 393.97956264 -120.29843825 392.83768669 -122 391 C-125.67117538 388.49290989 -125.67117538 388.49290989 -130 388 C-130.33 387.01 -130.66 386.02 -131 385 C-131.99 384.67 -132.98 384.34 -134 384 Z " fill="#F35243" transform="translate(296,8)"/>
<path d="M0 0 C7.92 0 15.84 0 24 0 C24 0.66 24 1.32 24 2 C24.85271484 2.05607422 24.85271484 2.05607422 25.72265625 2.11328125 C31.08435193 2.56978622 35.1669508 3.63489082 40 6 C40 6.66 40 7.32 40 8 C41.0828125 8.1546875 41.0828125 8.1546875 42.1875 8.3125 C46.78256249 9.4357375 49.37379316 11.06068974 52 15 C53.2684375 15.7115625 53.2684375 15.7115625 54.5625 16.4375 C57.44254264 18.28368118 57.28990396 18.85528896 58 22 C59.32467746 22.6837045 60.65863633 23.34964186 62 24 C63.125 26.0625 63.125 26.0625 64 28 C64.66 28.33 65.32 28.66 66 29 C67.0703125 31.36328125 67.0703125 31.36328125 68.125 34.3125 C68.47820312 35.27800781 68.83140625 36.24351562 69.1953125 37.23828125 C70 40 70 40 70 44 C70.66 44 71.32 44 72 44 C75.11908855 56.08646812 74.49194052 67.85178998 72 80 C71.34 80 70.68 80 70 80 C69.81824219 80.88751953 69.81824219 80.88751953 69.6328125 81.79296875 C68.20149588 88.5421771 67.05491217 93.10305384 62 98 C61.5359375 98.9590625 61.5359375 98.9590625 61.0625 99.9375 C58.59528708 104.72679568 54.49561905 107.32692922 50 110 C49.34 110.99 48.68 111.98 48 113 C44.76650772 114.85753812 42.75586417 116 39 116 C39 116.66 39 117.32 39 118 C32.70791739 120.76851635 26.69401919 121.74642822 19.87890625 122.5703125 C17.10992059 122.69175345 17.10992059 122.69175345 16 124 C14.48071962 124.07179964 12.95832518 124.08392007 11.4375 124.0625 C10.19806641 124.04896484 10.19806641 124.04896484 8.93359375 124.03515625 C7.97646484 124.01775391 7.97646484 124.01775391 7 124 C7 123.34 7 122.68 7 122 C5.906875 122.061875 4.81375 122.12375 3.6875 122.1875 C-9.54060905 122.11763323 -22.59617519 115.00909636 -32 106 C-32 105.34 -32 104.68 -32 104 C-32.66 104 -33.32 104 -34 104 C-38 98.58823529 -38 98.58823529 -38 96 C-38.99 95.67 -39.98 95.34 -41 95 C-43.21751399 91.30414334 -44 89.36991627 -44 85 C-44.66 85 -45.32 85 -46 85 C-51.17509827 70.67606729 -51.17509827 52.32393271 -46 38 C-45.34 38 -44.68 38 -44 38 C-43.8453125 36.948125 -43.8453125 36.948125 -43.6875 35.875 C-42.90640997 32.60862353 -41.57941257 29.9528148 -40 27 C-39.34 27 -38.68 27 -38 27 C-37.896875 26.401875 -37.79375 25.80375 -37.6875 25.1875 C-36.90175967 22.68741714 -36.03081147 21.62464918 -34 20 C-33.34 20 -32.68 20 -32 20 C-31.7525 19.38125 -31.505 18.7625 -31.25 18.125 C-29.77229238 15.61289704 -28.56044823 15.23892656 -26 14 C-25.67 13.01 -25.34 12.02 -25 11 C-19.77777778 8 -19.77777778 8 -17 8 C-17 7.34 -17 6.68 -17 6 C-11.33251843 3.16625922 -6.30267439 2.36776168 0 2 C0 1.34 0 0.68 0 0 Z " fill="#F35243" transform="translate(260,242)"/>
<path d="M0 0 C3.85253379 3.11481455 6.49432581 6.73107359 9 11 C9 11.99 9 12.98 9 14 C9.66 14 10.32 14 11 14 C12.1804489 17.54134669 12.14618724 20.75445214 12.125 24.4375 C12.12886719 26.41556641 12.12886719 26.41556641 12.1328125 28.43359375 C12.0297031 31.20238454 11.84082567 33.39077114 11 36 C10.34 36 9.68 36 9 36 C8.773125 36.886875 8.54625 37.77375 8.3125 38.6875 C6.80962911 42.48045988 5.00521032 44.28798093 2 47 C1.195625 47.8971875 1.195625 47.8971875 0.375 48.8125 C-1 50 -1 50 -4 50 C-4 50.66 -4 51.32 -4 52 C-12.47366643 55.08133325 -21.52633357 55.08133325 -30 52 C-30 51.34 -30 50.68 -30 50 C-30.845625 49.835 -31.69125 49.67 -32.5625 49.5 C-38.28227678 47.0040974 -41.85288839 42.49372089 -44.4375 36.875 C-45.03085063 33.84231902 -45.14679476 31.08268991 -45 28 C-45.66 28 -46.32 28 -47 28 C-47 26.02 -47 24.04 -47 22 C-46.34 22 -45.68 22 -45 22 C-44.96261719 21.34773438 -44.92523438 20.69546875 -44.88671875 20.0234375 C-44.38087707 13.29871863 -43.58167818 8.45259427 -38.5 3.625 C-36 2 -36 2 -33 2 C-32.67 1.01 -32.34 0.02 -32 -1 C-22.21159398 -6.64984006 -9.62888546 -4.92677973 0 0 Z " fill="#F25243" transform="translate(87,278)"/>
<path d="M0 0 C0 0.66 0 1.32 0 2 C0.7425 2.2475 1.485 2.495 2.25 2.75 C7.5231075 5.14686705 9.73195857 8.78350472 12 14 C12 14.66 12 15.32 12 16 C12.66 16 13.32 16 14 16 C15.69423409 22.35337785 15.69423409 29.64662215 14 36 C13.34 36 12.68 36 12 36 C11.773125 37.051875 11.54625 38.10375 11.3125 39.1875 C10.18986774 43.1772866 8.12221172 45.26806474 5 48 C4.34 48.66 3.68 49.32 3 50 C2.01 50 1.02 50 0 50 C-0.33 50.99 -0.66 51.98 -1 53 C-9.41043535 56.01506173 -19.67313485 56.51578751 -28 53 C-28.495 51.515 -28.495 51.515 -29 50 C-30.32796291 49.64587656 -31.66216607 49.31478446 -33 49 C-34.75 47.5625 -34.75 47.5625 -36 46 C-36 45.34 -36 44.68 -36 44 C-36.61875 43.79375 -37.2375 43.5875 -37.875 43.375 C-40.89875251 41.41845426 -41.17640995 39.43162522 -42 36 C-42 34.68 -42 33.36 -42 32 C-42.66 32 -43.32 32 -44 32 C-44 28.04 -44 24.08 -44 20 C-43.34 20 -42.68 20 -42 20 C-41.896875 18.7625 -41.79375 17.525 -41.6875 16.25 C-41.25225608 12.74317752 -40.62948243 10.52430313 -38 8 C-37.34 8 -36.68 8 -36 8 C-35.566875 7.071875 -35.566875 7.071875 -35.125 6.125 C-34 4 -34 4 -32 2 C-31.01 2 -30.02 2 -29 2 C-29 1.34 -29 0.68 -29 0 C-18.94217975 -4.43727364 -10.08511753 -3.47192571 0 0 Z " fill="#F35243" transform="translate(384,452)"/>
<path d="M0 0 C1.63671875 0.94921875 1.63671875 0.94921875 3.63671875 3.94921875 C4.59578125 4.38234375 4.59578125 4.38234375 5.57421875 4.82421875 C8.34874174 6.33759493 9.24298221 8.16174567 10.63671875 10.94921875 C10.63671875 11.60921875 10.63671875 12.26921875 10.63671875 12.94921875 C11.29671875 12.94921875 11.95671875 12.94921875 12.63671875 12.94921875 C15.2949986 21.75477076 15.74456331 30.20840593 12.63671875 38.94921875 C11.97671875 38.94921875 11.31671875 38.94921875 10.63671875 38.94921875 C10.48203125 39.78453125 10.48203125 39.78453125 10.32421875 40.63671875 C8.74912031 45.93477714 6.40158624 48.31600251 1.63671875 50.94921875 C1.14171875 51.93921875 1.14171875 51.93921875 0.63671875 52.94921875 C-8.00920296 56.81713109 -18.42684984 56.79194143 -27.36328125 53.94921875 C-29.73828125 52.01171875 -29.73828125 52.01171875 -31.36328125 49.94921875 C-32.25015625 49.45421875 -33.13703125 48.95921875 -34.05078125 48.44921875 C-36.36328125 46.94921875 -36.36328125 46.94921875 -36.98828125 44.82421875 C-37.11203125 44.20546875 -37.23578125 43.58671875 -37.36328125 42.94921875 C-38.35328125 42.61921875 -39.34328125 42.28921875 -40.36328125 41.94921875 C-44.92636794 32.65404217 -43.94713188 23.06322725 -41.41015625 13.39453125 C-40.18928741 10.54280029 -38.65888722 9.00485013 -36.36328125 6.94921875 C-35.88890625 6.45421875 -35.41453125 5.95921875 -34.92578125 5.44921875 C-25.36023436 -3.73370626 -12.26553482 -4.41559254 0 0 Z " fill="#F35244" transform="translate(385.36328125,103.05078125)"/>
</svg>
